<svg aria-hidden="true" style="position: absolute; width: 0; height: 0; overflow: hidden;" version="1.1" xmlns="http://www.w3.org/2000/svg" xmlns:xlink="http://www.w3.org/1999/xlink">
<defs>
<symbol id="icon-quote" viewBox="0 0 32 32">
<title>quote</title>
<path d="M16 3c-7.18 0-13 5.82-13 13s5.82 13 13 13 13-5.82 13-13-5.82-13-13-13zM16 27c-6.075 0-11-4.925-11-11s4.925-11 11-11 11 4.925 11 11-4.925 11-11 11zM14.652 11.771c-0.674-0.739-1.483-1.108-2.431-1.108-0.97 0-1.77 0.336-2.397 1.009-0.253 0.276-0.455 0.601-0.604 0.976s-0.223 0.756-0.223 1.141c0 0.794 0.224 1.47 0.67 2.027s1.029 0.89 1.747 1l0.249 0.016 0.215 0.034c0.331 0.044 0.497 0.171 0.497 0.38 0 0.221-0.221 0.568-0.663 1.042-0.464 0.507-1.198 1.021-2.203 1.538-0.42 0.221-0.629 0.496-0.629 0.827 0 0.21 0.071 0.384 0.215 0.521 0.143 0.138 0.325 0.206 0.546 0.206 0.551 0 1.312-0.319 2.282-0.959 1.146-0.75 2.062-1.662 2.745-2.738 0.684-1.074 1.025-2.136 1.025-3.184 0-0.496-0.094-0.989-0.281-1.48s-0.441-0.906-0.76-1.248zM22.523 11.771c-0.67-0.739-1.473-1.108-2.408-1.108-0.979 0-1.777 0.336-2.393 1.009-0.254 0.276-0.454 0.604-0.603 0.984s-0.223 0.758-0.223 1.133c0 0.794 0.22 1.473 0.659 2.035s1.018 0.893 1.732 0.992l0.264 0.016 0.197 0.034c0.33 0.044 0.495 0.171 0.495 0.38 0 0.221-0.215 0.568-0.644 1.042-0.451 0.485-1.183 0.998-2.194 1.538-0.419 0.221-0.628 0.496-0.628 0.827 0 0.21 0.072 0.384 0.215 0.521 0.144 0.138 0.325 0.206 0.545 0.206 0.55 0 1.31-0.319 2.277-0.959 1.145-0.75 2.056-1.662 2.732-2.738 0.676-1.074 1.015-2.136 1.015-3.184 0-0.496-0.093-0.989-0.28-1.48-0.185-0.49-0.438-0.906-0.758-1.248z"></path>
</symbol>
<symbol id="icon-link" viewBox="0 0 32 32">
<title>link</title>
<path d="M25.33 9.84l-3.5 6.062c-0.553 0.956-1.775 1.284-2.732 0.731l-0.865-0.5 1-1.731c0.478 0.275 1.090 0.112 1.365-0.366l2.5-4.33c0.276-0.479 0.112-1.090-0.365-1.366l-3.465-2c-0.479-0.276-1.090-0.112-1.365 0.366l-2.5 4.33c-0.277 0.479-0.113 1.090 0.365 1.366l-1 1.731-0.865-0.5c-0.957-0.552-1.285-1.775-0.732-2.731l3.5-6.062c0.553-0.957 1.775-1.284 2.732-0.732l5.195 3c0.957 0.552 1.285 1.775 0.732 2.732zM13.5 20.33c-0.479-0.276-0.643-0.888-0.366-1.366l4-6.928c0.276-0.479 0.888-0.643 1.366-0.366s0.643 0.888 0.365 1.366l-4 6.928c-0.275 0.478-0.886 0.641-1.365 0.366zM12.768 17.599v0c-0.479-0.276-1.090-0.112-1.366 0.365l-2.5 4.33c-0.276 0.479-0.112 1.090 0.366 1.366l3.465 2c0.478 0.276 1.090 0.112 1.365-0.366l2.5-4.33c0.276-0.478 0.112-1.090-0.365-1.366v0l1-1.731 0.865 0.5c0.957 0.552 1.285 1.774 0.732 2.731l-3.5 6.062c-0.553 0.957-1.775 1.284-2.732 0.732l-5.196-3c-0.957-0.553-1.285-1.775-0.732-2.732l3.5-6.062c0.553-0.957 1.776-1.285 2.733-0.732l0.865 0.5-1 1.733z"></path>
</symbol>
<symbol id="icon-calendar" viewBox="0 0 32 32">
<title>calendar</title>
<path d="M27 31h-22c-1.104 0-2-0.896-2-2v-22c0-1.105 0.896-2 2-2h2v1c0 1.657 1.343 3 3 3s3-1.343 3-3v-1h6v1c0 1.657 1.344 3 3 3s3-1.343 3-3v-1h2c1.104 0 2 0.895 2 2v22c0 1.104-0.896 2-2 2zM27 12h-22v17h22v-17zM10 17h-3v-3h3v3zM10 22h-3v-3h3v3zM10 27h-3v-3h3v3zM15 17h-3v-3h3v3zM15 22h-3v-3h3v3zM15 27h-3v-3h3v3zM20 17h-3v-3h3v3zM20 22h-3v-3h3v3zM20 27h-3v-3h3v3zM25 17h-3v-3h3v3zM25 22h-3v-3h3v3zM25 27h-3v-3h3v3zM21.969 8c-1.088 0-1.969-0.882-1.969-1.969v-2.062c0-1.088 0.881-1.969 1.969-1.969s1.969 0.881 1.969 1.969v2.062c0 1.087-0.881 1.969-1.969 1.969zM9.969 8c-1.088 0-1.969-0.882-1.969-1.969v-2.062c0-1.088 0.881-1.969 1.969-1.969s1.969 0.881 1.969 1.969v2.062c0 1.087-0.882 1.969-1.969 1.969z"></path>
</symbol>
<symbol id="icon-cassette" viewBox="0 0 32 32">
<title>cassette</title>
<path d="M28.017 28.016h-2.065l-2.002-6.008h-16.961l-2.003 6.008h-2.003c-1.658 0-3.004-1.346-3.004-3.004v-18.024c0-1.659 1.346-3.003 3.004-3.003h25.033c1.659 0 3.004 1.345 3.004 3.003v18.024c0.001 1.658-1.344 3.004-3.003 3.004zM27.954 6.988h-24.971v13.017h24.971v-13.017zM26.014 18.002h-21.028v-9.011h21.027v9.011zM9.488 10.977c-1.383 0-2.503 1.121-2.503 2.503s1.12 2.503 2.503 2.503 2.504-1.121 2.504-2.503-1.121-2.503-2.504-2.503zM16.939 12.496h-2.941v2.002h2.941v-2.002zM21.513 10.977c-1.383 0-2.503 1.121-2.503 2.503s1.12 2.503 2.503 2.503c1.382 0 2.503-1.121 2.503-2.503s-1.121-2.503-2.503-2.503zM21.445 14.498c-0.553 0-1.001-0.448-1.001-1.001s0.448-1.001 1.001-1.001 1.002 0.448 1.002 1.001c0 0.553-0.449 1.001-1.002 1.001zM9.555 14.498c-0.553 0-1.001-0.448-1.001-1.001s0.448-1.001 1.001-1.001c0.554 0 1.002 0.448 1.002 1.001s-0.449 1.001-1.002 1.001zM23.26 23.009l1.753 4.965h-19.088l1.689-4.965h15.646zM22.009 26.013h1.001v-1.001h-1.001v1.001zM20.006 26.013h1.002v-1.001h-1.002v1.001zM12.997 26.013h4.944v-1.001h-4.944v1.001zM9.993 26.013h1.001v-1.001h-1.001v1.001zM7.99 26.013h1.001v-1.001h-1.001v1.001z"></path>
</symbol>
<symbol id="icon-tie" viewBox="0 0 32 32">
<title>tie</title>
<path d="M16.902 8.968l1.248-5.924h-6.349l1.297 5.924h3.804zM13.071 10.077l-4.2 13.383 6.35 5.275 5.861-5.275-4.104-13.383h-3.907zM18.834 11.934l2.932 8.060h1.758v-1.808l-4.69-6.252z"></path>
</symbol>
<symbol id="icon-calculator" viewBox="0 0 32 32">
<title>calculator</title>
<path d="M24 5h-16c-0.553 0-1 0.447-1 1v21c0 0.552 0.447 1 1 1h16c0.552 0 1-0.448 1-1v-21c0-0.553-0.448-1-1-1zM9 15h2v2h-2v-2zM9 18h2v2h-2v-2zM9 21h2v2h-2v-2zM14 26h-5v-2h5v2zM14 23h-2v-2h2v2zM14 20h-2v-2h2v2zM14 17h-2v-2h2v2zM17 26h-2v-2h2v2zM17 23h-2v-2h2v2zM17 20h-2v-2h2v2zM17 17h-2v-2h2v2zM20 26h-2v-2h2v2zM20 23h-2v-2h2v2zM20 20h-2v-2h2v2zM20 17h-2v-2h2v2zM23 26h-2v-5h2v5zM23 20h-2v-2h2v2zM23 17h-2v-2h2v2zM23 13h-14v-6h14v6z"></path>
</symbol>
<symbol id="icon-presentation" viewBox="0 0 32 32">
<title>presentation</title>
<path d="M27.002 5.005h-23.005c-0.551 0-0.997-0.447-0.997-1s0.446-0.999 0.997-0.999h10.536v-1c0-0.552 0.447-0.999 0.998-0.999s0.997 0.447 0.997 0.999v1h10.474c0.552 0 0.998 0.448 0.998 0.999 0 0.553-0.446 1-0.998 1zM27.002 20.998h-23.005v-14.994h23.005v14.994zM7 13.032c0 2.213 1.791 4.007 4 4.007s4-1.794 4-4.007h-4v-4.009c-2.209 0-4 1.795-4 4.009zM18.024 9.003h-0.997v0.999h0.997v-0.999zM18.024 11.002h-0.997v0.999h0.997v-0.999zM18.024 13.001h-0.997v0.999h0.997v-0.999zM18.024 15h-0.997v1h0.997v-1zM18.024 17h-0.997v1h0.997v-1zM24.010 9.003h-4.987v0.999h4.987v-0.999zM24.010 11.002h-4.987v0.999h4.987v-0.999zM24.010 13.001h-4.987v0.999h4.987v-0.999zM24.010 15h-4.987v1h4.987v-1zM24.010 17h-4.987v1h4.987v-1zM12.781 25.996h2.251v-4.998h0.998v4.998h2.216l-2.216-4.998h1.995l3.989 8.996h-1.994l-1.33-3h-2.66v4.998h-0.998v-4.998h-2.701l-1.351 3h-1.995l4.052-8.996h1.995l-2.251 4.998zM16.030 20.998v0 0 0zM15.032 20.998v0 0 0z"></path>
</symbol>
<symbol id="icon-info" viewBox="0 0 32 32">
<title>info</title>
<path d="M16 3c-7.18 0-13 5.82-13 13s5.82 13 13 13 13-5.82 13-13-5.82-13-13-13zM18.039 20.783c-0.981 1.473-1.979 2.608-3.658 2.608-1.146-0.187-1.617-1.008-1.369-1.845l2.16-7.154c0.053-0.175-0.035-0.362-0.195-0.419-0.159-0.056-0.471 0.151-0.741 0.447l-1.306 1.571c-0.035-0.264-0.004-0.7-0.004-0.876 0.981-1.473 2.593-2.635 3.686-2.635 1.039 0.106 1.531 0.937 1.35 1.85l-2.175 7.189c-0.029 0.162 0.057 0.327 0.204 0.379 0.16 0.056 0.496-0.151 0.767-0.447l1.305-1.57c0.035 0.264-0.024 0.726-0.024 0.902zM17.748 11.439c-0.826 0-1.496-0.602-1.496-1.488s0.67-1.487 1.496-1.487 1.496 0.602 1.496 1.487c0 0.887-0.67 1.488-1.496 1.488z"></path>
</symbol>
<symbol id="icon-book" viewBox="0 0 32 32">
<title>book</title>
<path d="M15 25.875v-19.625c0 0-2.688-2.25-6.5-2.25s-6.5 2-6.5 2v19.875c0 0 2.688-1.938 6.5-1.938s6.5 1.938 6.5 1.938zM29 25.875v-19.625c0 0-2.688-2.25-6.5-2.25s-6.5 2-6.5 2v19.875c0 0 2.688-1.938 6.5-1.938s6.5 1.938 6.5 1.938zM31 8h-1v19h-12v1h-5v-1h-12v-19h-1v20h12v1h7.062l-0.062-1h12v-20z"></path>
</symbol>
<symbol id="icon-users" viewBox="0 0 36 32">
<title>users</title>
<path d="M24 24.082v-1.649c2.203-1.241 4-4.337 4-7.432 0-4.971 0-9-6-9s-6 4.029-6 9c0 3.096 1.797 6.191 4 7.432v1.649c-6.784 0.555-12 3.888-12 7.918h28c0-4.030-5.216-7.364-12-7.918z"></path>
<path d="M10.225 24.854c1.728-1.13 3.877-1.989 6.243-2.513-0.47-0.556-0.897-1.176-1.265-1.844-0.95-1.726-1.453-3.627-1.453-5.497 0-2.689 0-5.228 0.956-7.305 0.928-2.016 2.598-3.265 4.976-3.734-0.529-2.39-1.936-3.961-5.682-3.961-6 0-6 4.029-6 9 0 3.096 1.797 6.191 4 7.432v1.649c-6.784 0.555-12 3.888-12 7.918h8.719c0.454-0.403 0.956-0.787 1.506-1.146z"></path>
</symbol>
</defs>
</svg>
